<?xml version="1.0" encoding="utf-8"?>
<!-- Generator: Adobe Illustrator 16.0.0, SVG Export Plug-In . SVG Version: 6.00 Build 0)  -->
<!DOCTYPE svg PUBLIC "-//W3C//DTD SVG 1.1//EN" "http://www.w3.org/Graphics/SVG/1.1/DTD/svg11.dtd">
<svg version="1.1" id="Camada_1" xmlns="http://www.w3.org/2000/svg" xmlns:xlink="http://www.w3.org/1999/xlink" x="0px" y="0px"
	 width="200px" height="150px" viewBox="0 0 200 150" enable-background="new 0 0 200 150" xml:space="preserve">
<g>
	<g>
		<defs>
			<path id="SVGID_1_" d="M181.771,126.325c0.247-0.964,0.646-1.835,1.498-2.412c1.363-0.924,3.307-0.399,4.054,1.067
				c0.217,0.427,0.383,0.866,0.477,1.335c0.04,0.2,0.017,0.303-0.241,0.298c-0.924-0.017-1.848-0.007-2.772-0.007
				s-1.849-0.005-2.773,0.004c-0.005,0-0.011,0-0.016,0C181.787,126.61,181.71,126.566,181.771,126.325 M182.961,118.866
				c-2.18,0.402-3.962,1.472-5.33,3.201c-1.397,1.766-1.983,3.827-2.018,6.051c-0.015,0.94,0.101,1.876,0.341,2.791
				c0.348,1.326,0.94,2.528,1.848,3.562c0.878,1,1.932,1.77,3.159,2.295c1.102,0.474,2.256,0.753,3.448,0.81
				c1.034,0.05,2.074,0.053,3.1-0.16c0.935-0.193,1.831-0.484,2.677-0.936c0.66-0.351,1.252-0.792,1.817-1.271
				c0.393-0.333,0.726-0.728,1.052-1.125c0.103-0.125,0.146-0.231-0.041-0.343c-0.161-0.096-0.293-0.239-0.44-0.36
				c-0.87-0.722-1.736-1.446-2.612-2.16c-0.364-0.297-0.362-0.276-0.713,0.048c-1.195,1.104-2.569,1.693-4.233,1.474
				c-1.535-0.202-2.56-1.021-3.08-2.474c-0.126-0.354-0.123-0.355,0.251-0.355c3.741,0,7.482,0,11.224-0.001
				c0.143,0,0.285-0.013,0.428-0.02v-2.348c-0.011-0.037-0.029-0.073-0.03-0.11c-0.053-1.07-0.278-2.107-0.646-3.111
				c-0.537-1.464-1.351-2.743-2.567-3.739c-1.533-1.254-3.337-1.768-5.277-1.874c-0.173-0.01-0.347-0.015-0.521-0.015
				C184.183,118.694,183.571,118.753,182.961,118.866"/>
		</defs>
		<clipPath id="SVGID_2_">
			<use xlink:href="#SVGID_1_"  overflow="visible"/>
		</clipPath>
		
			<linearGradient id="SVGID_3_" gradientUnits="userSpaceOnUse" x1="-1365.5781" y1="446.3452" x2="-1365.5101" y2="446.3452" gradientTransform="matrix(2582.9087 -575.9796 -575.9796 -2582.9087 3784269.75 366493.3125)">
			<stop  offset="0" style="stop-color:#FFAB00"/>
			<stop  offset="0.5223" style="stop-color:#FFA200"/>
			<stop  offset="1" style="stop-color:#FF7901"/>
		</linearGradient>
		<polygon clip-path="url(#SVGID_2_)" fill="url(#SVGID_3_)" points="171.576,119.591 192.974,114.819 197.86,136.73 
			176.462,141.502 		"/>
	</g>
	<g>
		<defs>
			<path id="SVGID_4_" d="M14.359,113.829c-1.516,0.008-3.032,0.008-4.549,0.006c-0.545,0-1.09,0-1.636,0
				c-0.378,0-0.379,0.002-0.379,0.38c0,7.53,0,15.061,0,22.592c0,0.377,0.001,0.378,0.38,0.379c1.871,0,3.742,0,5.612,0
				c0.404,0,0.405-0.001,0.405-0.411c0-4.123,0-8.247,0-12.37v-0.291c0.343,0.438,0.627,0.887,0.919,1.33
				c1.585,2.416,3.172,4.831,4.759,7.246c0.236,0.36,0.28,0.359,0.523-0.012c0.932-1.424,1.863-2.848,2.793-4.272
				c0.94-1.44,1.879-2.881,2.818-4.321l0.06,0.013v0.309c0,4.133,0,8.266,0,12.398c0,0.38,0.002,0.381,0.377,0.381
				c0.531,0.001,1.062,0,1.593,0c1.407,0,2.813-0.001,4.22,0.006c0.251,0.001,0.356-0.076,0.323-0.328
				c-0.008-0.065-0.001-0.133-0.001-0.2c0-7.435,0-14.87,0-22.305c0-0.087-0.007-0.173,0.001-0.258
				c0.017-0.199-0.07-0.267-0.267-0.267c-2.138,0.005-4.276,0.004-6.414,0c-0.167,0-0.257,0.068-0.337,0.207
				c-0.176,0.305-0.368,0.6-0.553,0.898c-0.923,1.496-1.845,2.992-2.767,4.489c-0.632,1.027-1.266,2.055-1.893,3.085
				c-0.123,0.201-0.184,0.214-0.315-0.006c-0.616-1.026-1.248-2.043-1.876-3.063c-1.092-1.771-2.188-3.54-3.274-5.314
				c-0.127-0.207-0.264-0.301-0.517-0.301C14.363,113.829,14.361,113.829,14.359,113.829"/>
		</defs>
		<clipPath id="SVGID_5_">
			<use xlink:href="#SVGID_4_"  overflow="visible"/>
		</clipPath>
		
			<linearGradient id="SVGID_6_" gradientUnits="userSpaceOnUse" x1="-1365.5786" y1="446.146" x2="-1365.5098" y2="446.146" gradientTransform="matrix(2582.9087 -575.9796 -575.9796 -2582.9087 3784146.75 365939.3125)">
			<stop  offset="0" style="stop-color:#FFAB00"/>
			<stop  offset="0.5223" style="stop-color:#FFA200"/>
			<stop  offset="1" style="stop-color:#FF7901"/>
		</linearGradient>
		<polygon clip-path="url(#SVGID_5_)" fill="url(#SVGID_6_)" points="2.832,114.935 31.436,108.556 37.574,136.083 8.971,142.462 		
			"/>
	</g>
	<g>
		<defs>
			<path id="SVGID_7_" d="M120.622,131.295c-0.809-0.731-1.178-1.672-1.283-2.745c-0.109-1.118,0.14-2.136,0.804-3.033
				c0.582-0.787,1.36-1.285,2.356-1.393c0.075-0.009,0.148-0.033,0.223-0.044c0.066-0.01,0.133-0.01,0.225-0.016
				c1.296,0.096,2.332,0.663,3.026,1.814c0.41,0.68,0.614,1.431,0.592,2.201c-0.048,1.681-0.636,3.094-2.284,3.826
				c-0.437,0.194-0.899,0.291-1.361,0.291C122.1,132.198,121.284,131.895,120.622,131.295 M124.01,118.75
				c-1.389,0.143-2.576,0.686-3.588,1.628c-0.319,0.298-0.619,0.617-0.961,0.96c0-0.654-0.014-1.262,0.006-1.868
				c0.01-0.29-0.083-0.373-0.372-0.371c-1.909,0.011-3.818,0.012-5.727-0.001c-0.293-0.002-0.369,0.089-0.369,0.374
				c0.007,7.56,0.007,15.118,0,22.677c0,0.293,0.088,0.371,0.373,0.369c1.385-0.008,2.771-0.008,4.155-0.007
				c0.514,0.001,1.028,0.001,1.543,0.001c0.388,0,0.389-0.002,0.389-0.398c0.001-2.205,0-4.409,0.002-6.614
				c0-0.1-0.031-0.206,0.046-0.336c0.182,0.185,0.351,0.363,0.525,0.535c0.471,0.463,1,0.853,1.59,1.146
				c1.229,0.61,2.527,0.818,3.898,0.698c1.111-0.098,2.144-0.403,3.099-0.965c1.708-1.006,2.858-2.481,3.542-4.324
				c0.362-0.974,0.576-1.98,0.656-3.022c0.088-1.156,0.069-2.304-0.151-3.437c-0.399-2.06-1.271-3.871-2.888-5.271
				c-0.773-0.669-1.642-1.167-2.617-1.467c-0.76-0.233-1.529-0.35-2.315-0.35C124.57,118.707,124.291,118.721,124.01,118.75"/>
		</defs>
		<clipPath id="SVGID_8_">
			<use xlink:href="#SVGID_7_"  overflow="visible"/>
		</clipPath>
		
			<linearGradient id="SVGID_9_" gradientUnits="userSpaceOnUse" x1="-1365.5806" y1="446.2817" x2="-1365.5094" y2="446.2817" gradientTransform="matrix(2582.9087 -575.9796 -575.9796 -2582.9087 3784230.75 366315.3125)">
			<stop  offset="0" style="stop-color:#FFAB00"/>
			<stop  offset="0.5223" style="stop-color:#FFA200"/>
			<stop  offset="1" style="stop-color:#FF7901"/>
		</linearGradient>
		<polygon clip-path="url(#SVGID_8_)" fill="url(#SVGID_9_)" points="107.941,119.834 131.964,114.477 137.965,141.391 
			113.942,146.748 		"/>
	</g>
	<g>
		<defs>
			<path id="SVGID_10_" d="M73.739,119.097c-1.388,0.01-2.776,0.009-4.164,0.008c-0.482-0.001-0.965-0.001-1.448-0.001
				c-0.423,0-0.424,0.001-0.424,0.42c0,3.207,0.006,6.414-0.004,9.621c-0.003,0.733-0.224,1.424-0.741,1.954
				c-0.665,0.683-1.495,0.9-2.432,0.69c-0.45-0.101-0.847-0.309-1.147-0.648c-0.52-0.589-0.729-1.305-0.73-2.079
				c-0.004-3.197-0.005-6.395,0.004-9.592c0.001-0.286-0.078-0.375-0.37-0.373c-1.376,0.01-2.753,0.008-4.13,0.008
				c-0.494-0.001-0.987-0.001-1.481-0.001c-0.421,0-0.422,0.001-0.422,0.423c0,3.837,0.007,7.673-0.005,11.51
				c-0.003,0.981,0.129,1.931,0.465,2.852c0.486,1.332,1.334,2.355,2.598,3.011c0.751,0.39,1.559,0.563,2.403,0.646
				c0.928,0.092,1.826,0.004,2.698-0.28c1.33-0.434,2.386-1.271,3.295-2.418c0,0.708,0.012,1.338-0.005,1.967
				c-0.008,0.28,0.066,0.38,0.365,0.378c1.89-0.014,3.78-0.012,5.669-0.001c0.283,0.001,0.375-0.072,0.375-0.367
				c-0.008-5.784-0.008-11.567-0.001-17.351c0-0.28-0.07-0.376-0.357-0.376C73.745,119.097,73.742,119.097,73.739,119.097"/>
		</defs>
		<clipPath id="SVGID_11_">
			<use xlink:href="#SVGID_10_"  overflow="visible"/>
		</clipPath>
		
			<linearGradient id="SVGID_12_" gradientUnits="userSpaceOnUse" x1="-1365.5791" y1="446.2104" x2="-1365.5098" y2="446.2104" gradientTransform="matrix(2582.9087 -575.9796 -575.9796 -2582.9087 3784186.75 366117.3125)">
			<stop  offset="0" style="stop-color:#FFAB00"/>
			<stop  offset="0.5223" style="stop-color:#FFA200"/>
			<stop  offset="1" style="stop-color:#FF7901"/>
		</linearGradient>
		<polygon clip-path="url(#SVGID_11_)" fill="url(#SVGID_12_)" points="52.301,119.974 73.26,115.3 78.046,136.759 57.086,141.433 
					"/>
	</g>
	<g>
		<defs>
			<path id="SVGID_13_" d="M98.508,131.54c-0.911-0.605-1.424-1.479-1.671-2.527c-0.071-0.303-0.049-0.606-0.061-0.911
				c-0.026-1.219,0.4-2.251,1.302-3.072c0.559-0.508,1.233-0.769,1.983-0.847c0.968-0.1,1.843,0.135,2.612,0.731
				c0.896,0.695,1.355,1.63,1.519,2.742c0.123,0.831-0.022,1.613-0.354,2.359c-0.51,1.148-1.406,1.846-2.64,2.085
				c-0.237,0.045-0.469,0.068-0.697,0.068C99.794,132.168,99.127,131.952,98.508,131.54 M98.965,118.81
				c-1.153,0.146-2.249,0.48-3.278,1.004c-1.223,0.623-2.282,1.46-3.142,2.544c-1.632,2.058-2.263,4.402-1.976,6.992
				c0.142,1.275,0.551,2.479,1.217,3.589c0.957,1.592,2.276,2.797,3.937,3.609c1.49,0.729,3.073,1.092,4.834,1.034
				c0.528,0.049,1.143-0.023,1.753-0.118c0.402-0.063,0.798-0.162,1.192-0.272c1.868-0.52,3.447-1.51,4.713-2.964
				c1.274-1.463,2.016-3.175,2.205-5.123c0.127-1.315,0.027-2.604-0.382-3.856c-0.576-1.76-1.587-3.221-3.045-4.381
				c-1.739-1.384-3.739-2.022-5.922-2.159c-0.167-0.011-0.334-0.016-0.501-0.016C100.034,118.693,99.499,118.742,98.965,118.81"/>
		</defs>
		<clipPath id="SVGID_14_">
			<use xlink:href="#SVGID_13_"  overflow="visible"/>
		</clipPath>
		
			<linearGradient id="SVGID_15_" gradientUnits="userSpaceOnUse" x1="-1365.5796" y1="446.2505" x2="-1365.5098" y2="446.2505" gradientTransform="matrix(2582.9087 -575.9796 -575.9796 -2582.9087 3784210.75 366227.3125)">
			<stop  offset="0" style="stop-color:#FFAB00"/>
			<stop  offset="0.5223" style="stop-color:#FFA200"/>
			<stop  offset="1" style="stop-color:#FF7901"/>
		</linearGradient>
		<polygon clip-path="url(#SVGID_14_)" fill="url(#SVGID_15_)" points="86.257,119.59 109.588,114.388 114.573,136.743 
			91.242,141.945 		"/>
	</g>
	<g>
		<defs>
			<path id="SVGID_16_" d="M41.677,126.299c0.196-0.759,0.485-1.479,1.047-2.028c0.811-0.79,1.889-1.056,3.003-0.622
				c1.129,0.44,1.658,1.362,1.929,2.479c0.009,0.037,0.005,0.076,0.013,0.113c0.074,0.363,0.073,0.365-0.305,0.365
				c-0.897,0.001-1.794,0-2.691,0c-0.917,0-1.833-0.006-2.749,0.005c-0.005,0-0.011,0-0.016,0
				C41.67,126.611,41.613,126.546,41.677,126.299 M42.871,118.865c-2.208,0.397-3.995,1.496-5.371,3.24
				c-1.284,1.625-1.863,3.527-1.979,5.575c-0.047,0.828,0.025,1.653,0.167,2.471c0.305,1.771,1.052,3.332,2.29,4.632
				c0.784,0.824,1.716,1.457,2.765,1.928c1.945,0.87,3.982,1.021,6.061,0.802c1.238-0.131,2.413-0.526,3.496-1.149
				c1.039-0.598,1.939-1.364,2.68-2.313c0.091-0.116,0.094-0.174-0.026-0.271c-0.487-0.395-0.963-0.803-1.445-1.204
				c-0.59-0.492-1.183-0.983-1.773-1.476c-0.153-0.129-0.279-0.146-0.432,0.024c-0.367,0.404-0.811,0.72-1.28,0.992
				c-1.145,0.663-2.368,0.857-3.654,0.53c-1.27-0.323-2.093-1.144-2.54-2.362c-0.126-0.344-0.115-0.371,0.251-0.371
				c1.357,0,2.715,0,4.073,0c0.522,0,1.044,0,1.566,0c0.533,0,1.066,0,1.599,0c1.356,0,2.713,0,4.07-0.001
				c0.338,0,0.378-0.039,0.379-0.381c0.003-0.865,0-1.729-0.104-2.593c-0.134-1.102-0.387-2.163-0.833-3.182
				c-0.831-1.893-2.134-3.322-4.021-4.209c-1.129-0.531-2.324-0.763-3.552-0.836c-0.183-0.011-0.365-0.017-0.547-0.017
				C44.095,118.694,43.482,118.754,42.871,118.865"/>
		</defs>
		<clipPath id="SVGID_17_">
			<use xlink:href="#SVGID_16_"  overflow="visible"/>
		</clipPath>
		
			<linearGradient id="SVGID_18_" gradientUnits="userSpaceOnUse" x1="-1365.5786" y1="446.188" x2="-1365.5106" y2="446.188" gradientTransform="matrix(2582.9087 -575.9796 -575.9796 -2582.9087 3784172.75 366055.3125)">
			<stop  offset="0" style="stop-color:#FFAB00"/>
			<stop  offset="0.5223" style="stop-color:#FFA200"/>
			<stop  offset="1" style="stop-color:#FF7901"/>
		</linearGradient>
		<polygon clip-path="url(#SVGID_17_)" fill="url(#SVGID_18_)" points="31.429,119.596 52.904,114.807 57.815,136.831 
			36.34,141.619 		"/>
	</g>
	<g>
		<defs>
			<path id="SVGID_19_" d="M138.901,119.272c-1.137,0.403-2.11,1.05-2.842,2.021c-0.579,0.768-0.898,1.64-1.009,2.598
				c-0.1,0.86-0.087,1.71,0.165,2.541c0.415,1.373,1.378,2.267,2.611,2.909c1.317,0.687,2.755,1.026,4.17,1.431
				c0.62,0.177,1.25,0.335,1.807,0.678c0.267,0.165,0.508,0.376,0.464,0.727c-0.045,0.367-0.258,0.616-0.622,0.743
				c-0.76,0.265-1.527,0.141-2.28,0.019c-1.645-0.266-3.155-0.906-4.559-1.792c-0.23-0.146-0.34-0.108-0.473,0.109
				c-0.696,1.145-1.399,2.285-2.109,3.421c-0.111,0.179-0.067,0.261,0.089,0.366c0.695,0.468,1.414,0.89,2.183,1.229
				c2.48,1.097,5.062,1.514,7.758,1.202c1.165-0.135,2.272-0.446,3.277-1.071c1.027-0.64,1.773-1.509,2.175-2.66
				c0.307-0.881,0.419-1.779,0.348-2.714c-0.045-0.587-0.148-1.149-0.395-1.681c-0.521-1.123-1.436-1.847-2.501-2.398
				c-1.213-0.629-2.528-0.985-3.829-1.377c-0.7-0.212-1.41-0.404-2.052-0.769c-0.277-0.158-0.501-0.373-0.503-0.711
				c-0.001-0.335,0.234-0.52,0.511-0.662c0.227-0.116,0.468-0.149,0.716-0.163c0.898-0.049,1.754,0.168,2.604,0.418
				c0.944,0.278,1.831,0.692,2.7,1.147c0.143,0.075,0.238,0.106,0.337-0.081c0.599-1.125,1.222-2.235,1.816-3.363
				c0.336-0.64,0.358-0.516-0.258-0.861c-2.143-1.197-4.45-1.784-7.173-1.775c-0.09-0.004-0.182-0.006-0.276-0.006
				C140.902,118.747,139.888,118.921,138.901,119.272"/>
		</defs>
		<clipPath id="SVGID_20_">
			<use xlink:href="#SVGID_19_"  overflow="visible"/>
		</clipPath>
		
			<linearGradient id="SVGID_21_" gradientUnits="userSpaceOnUse" x1="-1365.5806" y1="446.2974" x2="-1365.5094" y2="446.2974" gradientTransform="matrix(2582.9087 -575.9796 -575.9796 -2582.9087 3784240.75 366359.3125)">
			<stop  offset="0" style="stop-color:#FFAB00"/>
			<stop  offset="0.5223" style="stop-color:#FFA200"/>
			<stop  offset="1" style="stop-color:#FF7901"/>
		</linearGradient>
		<polygon clip-path="url(#SVGID_20_)" fill="url(#SVGID_21_)" points="130.068,119.646 149.368,115.342 154.171,136.884 
			134.872,141.188 		"/>
	</g>
	<g>
		<defs>
			<path id="SVGID_22_" d="M78.521,114.95c0.013,1.278,0,2.558,0.011,3.836c0.002,0.255-0.078,0.331-0.327,0.323
				c-0.278-0.01-0.557-0.008-0.836-0.006c-0.227,0.001-0.455,0.002-0.682-0.002c-0.21-0.004-0.283,0.072-0.282,0.282
				c0.006,1.546,0.006,3.092,0,4.639c-0.001,0.212,0.077,0.283,0.285,0.279c0.224-0.004,0.448-0.003,0.672-0.001
				c0.282,0.001,0.563,0.003,0.845-0.007c0.253-0.009,0.328,0.073,0.325,0.325c-0.011,1.278-0.005,2.558-0.005,3.837
				c0,1.192,0,2.386,0,3.578c0,0.506,0.071,1.004,0.176,1.496c0.273,1.288,0.877,2.375,2.009,3.095
				c0.96,0.611,2.048,0.854,3.172,0.896c0.635,0.022,1.273,0.028,1.912-0.042c1.041-0.112,2.031-0.38,2.979-0.817
				c0.196-0.091,0.278-0.224,0.277-0.447c-0.008-1.479-0.003-2.958-0.005-4.438c0-0.322-0.035-0.34-0.323-0.212
				c-0.694,0.307-1.41,0.492-2.179,0.487c-1.125-0.007-1.604-0.602-1.615-1.63c-0.021-1.919,0-3.837-0.012-5.755
				c-0.002-0.283,0.064-0.381,0.363-0.376c1.145,0.018,2.291,0.008,3.436,0.007c0.387-0.001,0.388-0.002,0.388-0.399
				c0-1.461,0-2.921,0-4.381c0-0.413-0.001-0.414-0.402-0.414c-0.601,0-1.203,0-1.804,0c-0.535,0-1.069,0-1.604-0.001
				c-0.371,0-0.371,0-0.372-0.382c0-1.27-0.007-2.539,0.005-3.809c0.002-0.267-0.087-0.339-0.345-0.338
				c-1.899,0.009-3.798,0.011-5.697-0.002c-0.003,0-0.006,0-0.009,0C78.589,114.573,78.519,114.67,78.521,114.95"/>
		</defs>
		<clipPath id="SVGID_23_">
			<use xlink:href="#SVGID_22_"  overflow="visible"/>
		</clipPath>
		
			<linearGradient id="SVGID_24_" gradientUnits="userSpaceOnUse" x1="-1365.5776" y1="446.2192" x2="-1365.5123" y2="446.2192" gradientTransform="matrix(2582.9087 -575.9796 -575.9796 -2582.9087 3784191.75 366141.3125)">
			<stop  offset="0" style="stop-color:#FFAB00"/>
			<stop  offset="0.5223" style="stop-color:#FFA200"/>
			<stop  offset="1" style="stop-color:#FF7901"/>
		</linearGradient>
		<polygon clip-path="url(#SVGID_23_)" fill="url(#SVGID_24_)" points="71.523,115.661 88.504,111.875 93.987,136.46 
			77.006,140.248 		"/>
	</g>
	<g>
		<defs>
			<path id="SVGID_25_" d="M163.629,114.949c0.014,1.288,0.001,2.576,0.01,3.864c0.001,0.227-0.072,0.301-0.296,0.295
				c-0.273-0.007-0.546-0.006-0.819-0.005c-0.242,0.002-0.484,0.002-0.727-0.002c-0.208-0.004-0.285,0.067-0.284,0.28
				c0.006,1.546,0.006,3.092,0,4.637c-0.001,0.21,0.07,0.288,0.281,0.283c0.228-0.005,0.456-0.003,0.685-0.002
				c0.277,0.002,0.555,0.003,0.832-0.006c0.248-0.008,0.331,0.065,0.329,0.321c-0.011,1.26-0.005,2.52-0.005,3.779
				c0,1.135-0.004,2.271,0.001,3.406c0.004,0.908,0.126,1.8,0.459,2.651c0.278,0.709,0.678,1.346,1.27,1.835
				c1.042,0.862,2.296,1.156,3.604,1.231c0.633,0.036,1.272,0.029,1.912-0.037c1.052-0.107,2.049-0.38,3.007-0.82
				c0.197-0.091,0.276-0.208,0.274-0.436c-0.011-1.469-0.005-2.938-0.006-4.408c0-0.361-0.032-0.379-0.373-0.227
				c-0.75,0.335-1.534,0.518-2.356,0.451c-0.562-0.045-1.033-0.275-1.245-0.845c-0.1-0.267-0.146-0.553-0.147-0.837
				c-0.005-1.918,0.001-3.836-0.007-5.754c-0.001-0.235,0.069-0.313,0.309-0.312c0.56,0.005,1.12,0.004,1.68,0.004
				c0.613-0.001,1.228-0.001,1.841,0.006c0.27,0.002,0.364-0.07,0.361-0.352c-0.012-1.498-0.011-2.996,0-4.494
				c0.002-0.271-0.072-0.364-0.353-0.36c-1.135,0.014-2.271,0.006-3.407,0.006c-0.426,0-0.426-0.001-0.427-0.413
				c0-1.25-0.009-2.5,0.006-3.75c0.004-0.296-0.092-0.369-0.375-0.367c-1.889,0.011-3.779,0.012-5.668-0.001
				c-0.002,0-0.005,0-0.008,0C163.698,114.573,163.626,114.669,163.629,114.949"/>
		</defs>
		<clipPath id="SVGID_26_">
			<use xlink:href="#SVGID_25_"  overflow="visible"/>
		</clipPath>
		
			<linearGradient id="SVGID_27_" gradientUnits="userSpaceOnUse" x1="-1365.5762" y1="446.3149" x2="-1365.5109" y2="446.3149" gradientTransform="matrix(2582.9087 -575.9796 -575.9796 -2582.9087 3784250.75 366407.3125)">
			<stop  offset="0" style="stop-color:#FFAB00"/>
			<stop  offset="0.5223" style="stop-color:#FFA200"/>
			<stop  offset="1" style="stop-color:#FF7901"/>
		</linearGradient>
		<polygon clip-path="url(#SVGID_26_)" fill="url(#SVGID_27_)" points="156.63,115.661 173.619,111.872 179.104,136.465 
			162.114,140.254 		"/>
	</g>
	<g>
		<defs>
			<path id="SVGID_28_" d="M158.729,119.097c-1.889,0.013-3.779,0.013-5.668,0c-0.291-0.001-0.371,0.085-0.37,0.372
				c0.008,5.783,0.008,11.566,0,17.35c-0.001,0.288,0.079,0.374,0.37,0.372c1.38-0.009,2.76-0.008,4.14-0.007
				c0.5,0,1,0.001,1.5,0.001c0.392-0.001,0.393-0.002,0.393-0.395c0.001-2.873,0.001-5.745,0.001-8.617
				c0-2.901-0.004-5.803,0.006-8.703c0-0.285-0.078-0.373-0.362-0.373C158.735,119.097,158.732,119.097,158.729,119.097"/>
		</defs>
		<clipPath id="SVGID_29_">
			<use xlink:href="#SVGID_28_"  overflow="visible"/>
		</clipPath>
		
			<linearGradient id="SVGID_30_" gradientUnits="userSpaceOnUse" x1="-1365.5796" y1="446.313" x2="-1365.5106" y2="446.313" gradientTransform="matrix(2582.9087 -575.9796 -575.9796 -2582.9087 3784249.75 366401.3125)">
			<stop  offset="0" style="stop-color:#FFAB00"/>
			<stop  offset="0.5223" style="stop-color:#FFA200"/>
			<stop  offset="1" style="stop-color:#FF7901"/>
		</linearGradient>
		<polygon clip-path="url(#SVGID_29_)" fill="url(#SVGID_30_)" points="148.845,119.953 158.797,117.734 162.944,136.335 
			152.994,138.555 		"/>
	</g>
	<g>
		<defs>
			<path id="SVGID_31_" d="M152.576,113.141c0.011,1.373,0.011,2.747,0,4.121c-0.002,0.263,0.082,0.344,0.343,0.341
				c1.001-0.013,2.003-0.006,3.005-0.006c1.001,0,2.004-0.008,3.005,0.006c0.263,0.003,0.344-0.081,0.341-0.342
				c-0.011-1.374-0.011-2.748,0-4.122c0.002-0.264-0.082-0.342-0.343-0.34c-2.003,0.009-4.007,0.009-6.01-0.001
				c-0.001,0-0.003,0-0.005,0C152.654,112.798,152.574,112.881,152.576,113.141"/>
		</defs>
		<clipPath id="SVGID_32_">
			<use xlink:href="#SVGID_31_"  overflow="visible"/>
		</clipPath>
		
			<linearGradient id="SVGID_33_" gradientUnits="userSpaceOnUse" x1="-1365.5703" y1="446.2466" x2="-1365.5128" y2="446.2466" gradientTransform="matrix(2582.9087 -575.9796 -575.9796 -2582.9087 3784209.75 366219.3125)">
			<stop  offset="0" style="stop-color:#FFAB00"/>
			<stop  offset="0.5223" style="stop-color:#FFA200"/>
			<stop  offset="1" style="stop-color:#FF7901"/>
		</linearGradient>
		<polygon clip-path="url(#SVGID_32_)" fill="url(#SVGID_33_)" points="151.553,113.026 158.955,111.375 160.294,117.378 
			152.892,119.029 		"/>
	</g>
</g>
<g>
	<g>
		<defs>
			<path id="SVGID_34_" d="M125.873,24.06v23.188v0.102v21.052l-16.78,16.78V64.13l-8.187,8.187l-8.187-8.187v21.052l-16.781-16.78
				V47.35l-0.153-23.137l24.968,24.968L125.873,24.06z M98.307,7.483c-0.593,0.16-1.208,0.09-1.81,0.144
				c-2.643,0.237-5.236,0.722-7.794,1.411c-2.48,0.667-4.875,1.563-7.215,2.631c-3.056,1.394-5.887,3.15-8.563,5.164
				c-2.138,1.608-4.102,3.422-5.913,5.386c-2.361,2.562-4.417,5.362-6.135,8.396c-2.291,4.048-3.963,8.339-4.923,12.901
				c-0.444,2.113-0.764,4.237-0.925,6.392c-0.068,0.915-0.041,1.824-0.078,2.734c-0.008,0.203,0.021,0.408-0.066,0.602v0.305
				c0.022,0.166,0.064,0.333,0.063,0.5c-0.036,5.133,0.948,10.089,2.653,14.908c1.146,3.24,2.68,6.297,4.549,9.188
				c1.358,2.1,2.87,4.076,4.542,5.938c3.288,3.662,7.072,6.699,11.333,9.154c4.007,2.31,8.282,3.932,12.785,4.945
				c1.855,0.418,3.737,0.698,5.635,0.878c0.62,0.06,1.25-0.002,1.861,0.146h4.982c0.629-0.146,1.274-0.074,1.913-0.146
				c1.188-0.134,2.379-0.259,3.555-0.471c2.675-0.48,5.302-1.151,7.854-2.1c2.728-1.015,5.347-2.254,7.846-3.75
				c2.571-1.539,4.986-3.296,7.177-5.331c1.696-1.575,3.325-3.224,4.783-5.037c2.039-2.535,3.839-5.221,5.315-8.115
				c1.755-3.441,3.055-7.052,3.899-10.826c0.682-3.055,1.01-6.15,1.105-9.271c0.03-0.977-0.016-1.957-0.068-2.938
				c-0.081-1.501-0.223-2.99-0.419-4.478c-0.335-2.548-0.921-5.038-1.708-7.48c-0.976-3.029-2.241-5.931-3.828-8.694
				c-1.68-2.923-3.632-5.653-5.915-8.126c-1.569-1.7-3.231-3.318-5.042-4.776c-2.348-1.89-4.838-3.558-7.504-4.958
				c-3.512-1.845-7.198-3.233-11.07-4.11c-2.007-0.454-4.03-0.784-6.082-0.969c-0.569-0.051-1.15,0.01-1.709-0.144H98.307z"/>
		</defs>
		<clipPath id="SVGID_35_">
			<use xlink:href="#SVGID_34_"  overflow="visible"/>
		</clipPath>
		
			<linearGradient id="SVGID_36_" gradientUnits="userSpaceOnUse" x1="-1363.9497" y1="446.1987" x2="-1363.8296" y2="446.1987" gradientTransform="matrix(762.0854 0 0 -762.0854 1039501.375 340094.9688)">
			<stop  offset="0" style="stop-color:#FFAB00"/>
			<stop  offset="0.5223" style="stop-color:#FFA200"/>
			<stop  offset="1" style="stop-color:#FF7901"/>
		</linearGradient>
		<rect x="54.886" y="7.483" clip-path="url(#SVGID_35_)" fill="url(#SVGID_36_)" width="91.881" height="91.722"/>
	</g>
</g>
</svg>
